<svg version="1.1" id="Layer_1" xmlns="http://www.w3.org/2000/svg" xmlns:xlink="http://www.w3.org/1999/xlink" x="0px" y="0px"
	 width="100%" viewBox="0 0 1000 600" enable-background="new 0 0 1000 600" xml:space="preserve">
<path fill="#FFFFFF" opacity="1.000000" stroke="none" 
	d="
M665.000000,601.000000 
	C443.333344,601.000000 222.166672,601.000000 1.000000,601.000000 
	C1.000000,401.000000 1.000000,201.000000 1.000000,1.000000 
	C334.333344,1.000000 667.666687,1.000000 1001.000000,1.000000 
	C1001.000000,201.000000 1001.000000,401.000000 1001.000000,601.000000 
	C889.166687,601.000000 777.333313,601.000000 665.000000,601.000000 
M196.235840,385.906799 
	C187.040009,388.031921 177.946609,391.179871 168.631378,392.112762 
	C116.220818,397.361511 69.581406,354.853851 69.166069,301.965424 
	C68.655716,236.976059 135.743469,191.762985 196.265091,216.308411 
	C204.469940,219.635986 204.453018,219.629639 201.381683,227.810989 
	C189.763229,258.759705 178.184326,289.723358 166.474365,320.637390 
	C165.802063,322.412262 164.097702,323.796204 162.873657,325.362061 
	C161.686600,323.736511 159.991333,322.278992 159.389771,320.459839 
	C151.980164,298.052551 144.785995,275.574158 137.413193,253.154572 
	C134.249420,243.533997 127.047981,239.994431 117.953209,243.275238 
	C108.324005,246.748840 104.727859,254.485199 108.301537,263.899323 
	C115.611984,283.157074 122.842804,302.445190 130.196518,321.686371 
	C135.769989,336.269470 141.357086,350.850128 147.203781,365.324554 
	C149.193146,370.249573 152.698471,373.937836 158.291504,375.229858 
	C169.467957,377.811646 176.383041,373.752533 181.562683,361.039276 
	C199.423904,317.199493 217.231247,273.337738 235.039459,229.476379 
	C237.781586,222.722610 236.989136,219.687790 231.302139,215.110916 
	C205.040527,193.975708 175.196991,187.264404 142.243546,192.979294 
	C82.806580,203.287048 42.986778,258.235321 52.234562,317.240143 
	C59.361366,362.712189 93.710068,398.761871 139.329514,408.648102 
	C184.065399,418.342865 228.939331,400.031799 254.040756,360.879028 
	C275.326355,327.678131 280.077545,292.698395 262.365173,256.174377 
	C259.852386,250.992920 255.979385,249.625519 250.933075,252.027847 
	C245.498886,254.614822 243.749435,258.933167 246.096008,264.766876 
	C252.628647,281.007324 255.593582,297.764862 252.515244,315.122955 
	C246.603180,348.459747 227.833450,371.871002 196.235840,385.906799 
M545.416260,272.072296 
	C540.858643,267.676208 535.377014,267.786285 530.031494,269.648651 
	C525.510315,271.223846 523.494202,275.202789 523.485718,279.933655 
	C523.438354,306.428741 523.368713,332.924408 523.517273,359.418701 
	C523.557617,366.616364 528.555725,370.799103 536.007019,370.680145 
	C543.635315,370.558441 548.059814,366.461578 548.142700,359.168762 
	C548.244812,350.171539 548.109375,341.171814 548.184753,332.174072 
	C548.257324,323.519287 547.883484,314.805389 548.769226,306.227264 
	C549.817993,296.071167 555.816895,291.427277 565.591125,291.736969 
	C575.138855,292.039490 579.446716,296.299072 580.636780,306.771362 
	C580.899414,309.081390 580.906982,311.428314 580.910706,313.758484 
	C580.933716,328.255798 580.908020,342.753265 580.927856,357.250610 
	C580.938599,365.147278 585.993103,370.780029 593.051270,370.837585 
	C600.382690,370.897369 605.632935,365.255981 605.703125,357.088470 
	C605.771851,349.090485 605.694336,341.091400 605.724670,333.092957 
	C605.758118,324.263397 605.501221,315.414978 605.995056,306.609802 
	C606.526001,297.144623 612.754822,291.697144 621.998047,291.726501 
	C631.921692,291.758026 636.926575,296.381226 637.858582,306.461182 
	C638.026917,308.281250 637.986816,310.123535 637.987976,311.955627 
	C637.997375,327.286194 637.943542,342.617004 638.014648,357.947235 
	C638.052551,366.107178 642.276489,370.180206 650.387695,370.173004 
	C658.520691,370.165802 662.809570,366.019775 662.836853,357.987122 
	C662.898621,339.824585 663.124878,321.658783 662.864746,303.500305 
	C662.667297,289.723541 656.313171,279.062225 644.039368,272.790405 
	C630.247925,265.743103 616.234619,267.438995 602.816895,274.207062 
	C598.354492,276.457947 595.002502,276.805328 590.430542,274.132141 
	C578.066284,266.902893 565.238403,265.818420 552.861023,274.288971 
	C549.400879,276.656891 547.543884,276.022644 545.416260,272.072296 
M319.755493,297.756775 
	C328.843597,302.150452 337.865326,306.688965 347.039703,310.894501 
	C355.173676,314.623077 363.732086,317.498260 371.623993,321.659027 
	C377.745514,324.886414 379.701111,331.752472 376.035095,336.971100 
	C373.651520,340.364166 369.597260,343.660614 365.679443,344.705475 
	C351.525391,348.480316 338.407471,345.702148 326.786224,336.353790 
	C320.502747,331.299164 313.632019,332.442505 308.486908,338.930054 
	C303.682007,344.988617 304.501434,350.974731 311.085815,356.183441 
	C331.919342,372.664154 355.344574,374.978638 379.425354,366.185242 
	C406.782623,356.195465 412.776215,320.843689 390.375946,303.724945 
	C383.256042,298.283752 374.509491,294.822845 366.215363,291.107483 
	C357.740875,287.311279 348.753387,284.660156 340.279999,280.861755 
	C333.298889,277.732330 331.231750,269.798553 335.923584,264.258087 
	C338.242310,261.519958 341.846741,259.139923 345.300171,258.226837 
	C356.833130,255.177521 367.954468,256.534271 378.479889,262.700134 
	C381.258118,264.327637 385.048279,265.539490 388.107208,265.097473 
	C394.102753,264.231140 397.722870,259.783539 398.638794,253.878677 
	C399.480225,248.454086 396.245148,244.762848 391.854767,242.089355 
	C370.448639,229.054276 348.177673,228.436401 326.218719,239.592697 
	C304.000702,250.880600 300.741486,281.429199 319.755493,297.756775 
M691.034973,282.481934 
	C696.387146,298.396118 701.695435,314.325256 707.106934,330.219238 
	C710.692688,340.750702 714.194275,351.321075 718.184814,361.700531 
	C720.426270,367.530365 725.249329,370.100769 731.615356,370.179962 
	C738.052551,370.260010 743.017944,368.082123 745.977600,362.229340 
	C747.171814,359.867859 748.136230,357.365997 748.969482,354.849915 
	C755.603271,334.817108 762.179565,314.765289 768.774963,294.719757 
	C773.761719,279.563629 778.795349,264.422729 783.720581,249.246613 
	C786.376404,241.063202 783.833130,235.705795 776.230957,232.987045 
	C767.882324,230.001358 761.932739,232.914932 759.219116,241.496490 
	C750.852600,267.954651 742.547668,294.432312 734.212219,320.900299 
	C733.659668,322.654938 733.052185,324.392273 732.470215,326.137634 
	C730.706604,324.533844 730.030945,323.068726 729.549805,321.542267 
	C721.210510,295.080505 712.890625,268.612579 704.577026,242.142731 
	C701.869263,233.521149 695.903870,230.048248 687.956726,232.502960 
	C680.326843,234.859711 677.260559,241.585205 680.102295,250.118118 
	C683.616943,260.671997 687.266846,271.180847 691.034973,282.481934 
M816.031860,328.125549 
	C830.363708,328.108887 844.695740,328.123230 859.027405,328.063080 
	C866.737671,328.030731 870.830383,324.659485 870.762512,317.011658 
	C870.693665,309.249573 870.314575,301.275757 868.468872,293.789795 
	C864.935425,279.458923 855.200806,270.884857 840.480042,269.017822 
	C833.785095,268.168640 826.835083,268.168915 820.118530,268.886353 
	C804.509460,270.553680 794.529602,279.339539 790.811584,294.649414 
	C786.770569,311.288696 786.793030,328.047974 791.326355,344.562866 
	C794.042236,354.456757 799.939758,362.459412 809.931885,365.985413 
	C829.459778,372.876434 848.248535,371.441681 865.498169,359.165680 
	C870.877686,355.337280 871.475708,349.150848 867.418701,343.856293 
	C863.007751,338.099854 856.721619,337.151367 850.219360,341.286072 
	C842.263062,346.345459 833.691040,348.201477 824.454956,345.969574 
	C816.512878,344.050446 811.968079,335.261475 816.031860,328.125549 
M500.013184,355.158081 
	C501.738953,349.350433 500.234253,344.591644 495.562775,341.082977 
	C491.310669,337.889282 486.582642,337.745789 481.637360,341.011292 
	C474.380188,345.803406 466.528473,347.816559 457.928314,346.425903 
	C449.817535,345.114349 446.526154,341.521973 445.175171,333.372498 
	C444.538391,329.531372 445.520935,327.933838 449.745361,327.999481 
	C463.067780,328.206512 476.395508,328.102539 489.721069,328.065643 
	C497.891663,328.043030 501.727844,324.516754 501.841553,316.267303 
	C501.919189,310.631866 501.688293,304.912567 500.799713,299.358063 
	C497.906250,281.271393 487.873322,271.238037 469.747528,268.771881 
	C463.571045,267.931580 457.108704,268.200226 450.883698,268.904816 
	C435.490570,270.647095 425.613068,279.286530 421.906097,294.372131 
	C417.865540,310.815430 417.859497,327.399628 422.127808,343.783264 
	C425.343872,356.127777 433.153778,364.892120 445.786438,367.662201 
	C453.479279,369.349121 461.668915,369.928558 469.530731,369.412201 
	C481.012909,368.658051 491.559875,364.627838 500.013184,355.158081 
M947.911438,271.610291 
	C936.517700,264.247375 926.813965,269.039154 917.577881,276.393555 
	C916.513428,274.860199 915.846436,273.705536 914.995361,272.707977 
	C911.819580,268.985260 904.850220,267.390442 899.738037,269.318970 
	C895.226501,271.020874 892.703003,274.429413 892.713501,279.237732 
	C892.770691,305.563904 892.852112,331.890778 893.139771,358.215057 
	C893.213623,364.972351 898.925781,370.027588 905.554382,370.002472 
	C912.219055,369.977173 917.559448,364.910156 917.893616,358.099030 
	C918.064880,354.607971 917.929810,351.101868 917.931946,347.602570 
	C917.939819,334.438507 917.814819,321.272614 917.996216,308.110962 
	C918.144897,297.321716 922.727051,292.952698 933.306519,292.932709 
	C935.806030,292.928009 938.307739,292.996155 940.804688,292.915131 
	C947.468811,292.698853 950.819153,289.802612 950.805847,283.128906 
	C950.798645,279.484680 949.257935,275.843536 947.911438,271.610291 
z"/>
<path fill="#414753" opacity="1.000000" stroke="none" 
	d="
M196.596207,385.774231 
	C227.833450,371.871002 246.603180,348.459747 252.515244,315.122955 
	C255.593582,297.764862 252.628647,281.007324 246.096008,264.766876 
	C243.749435,258.933167 245.498886,254.614822 250.933075,252.027847 
	C255.979385,249.625519 259.852386,250.992920 262.365173,256.174377 
	C280.077545,292.698395 275.326355,327.678131 254.040756,360.879028 
	C228.939331,400.031799 184.065399,418.342865 139.329514,408.648102 
	C93.710068,398.761871 59.361366,362.712189 52.234562,317.240143 
	C42.986778,258.235321 82.806580,203.287048 142.243546,192.979294 
	C175.196991,187.264404 205.040527,193.975708 231.302139,215.110916 
	C236.989136,219.687790 237.781586,222.722610 235.039459,229.476379 
	C217.231247,273.337738 199.423904,317.199493 181.562683,361.039276 
	C176.383041,373.752533 169.467957,377.811646 158.291504,375.229858 
	C152.698471,373.937836 149.193146,370.249573 147.203781,365.324554 
	C141.357086,350.850128 135.769989,336.269470 130.196518,321.686371 
	C122.842804,302.445190 115.611984,283.157074 108.301537,263.899323 
	C104.727859,254.485199 108.324005,246.748840 117.953209,243.275238 
	C127.047981,239.994431 134.249420,243.533997 137.413193,253.154572 
	C144.785995,275.574158 151.980164,298.052551 159.389771,320.459839 
	C159.991333,322.278992 161.686600,323.736511 162.873657,325.362061 
	C164.097702,323.796204 165.802063,322.412262 166.474365,320.637390 
	C178.184326,289.723358 189.763229,258.759705 201.381683,227.810989 
	C204.453018,219.629639 204.469940,219.635986 196.265091,216.308411 
	C135.743469,191.762985 68.655716,236.976059 69.166069,301.965424 
	C69.581406,354.853851 116.220818,397.361511 168.631378,392.112762 
	C177.946609,391.179871 187.040009,388.031921 196.596207,385.774231 
z"/>
<path fill="#424853" opacity="1.000000" stroke="none" 
	d="
M545.653687,272.352905 
	C547.543884,276.022644 549.400879,276.656891 552.861023,274.288971 
	C565.238403,265.818420 578.066284,266.902893 590.430542,274.132141 
	C595.002502,276.805328 598.354492,276.457947 602.816895,274.207062 
	C616.234619,267.438995 630.247925,265.743103 644.039368,272.790405 
	C656.313171,279.062225 662.667297,289.723541 662.864746,303.500305 
	C663.124878,321.658783 662.898621,339.824585 662.836853,357.987122 
	C662.809570,366.019775 658.520691,370.165802 650.387695,370.173004 
	C642.276489,370.180206 638.052551,366.107178 638.014648,357.947235 
	C637.943542,342.617004 637.997375,327.286194 637.987976,311.955627 
	C637.986816,310.123535 638.026917,308.281250 637.858582,306.461182 
	C636.926575,296.381226 631.921692,291.758026 621.998047,291.726501 
	C612.754822,291.697144 606.526001,297.144623 605.995056,306.609802 
	C605.501221,315.414978 605.758118,324.263397 605.724670,333.092957 
	C605.694336,341.091400 605.771851,349.090485 605.703125,357.088470 
	C605.632935,365.255981 600.382690,370.897369 593.051270,370.837585 
	C585.993103,370.780029 580.938599,365.147278 580.927856,357.250610 
	C580.908020,342.753265 580.933716,328.255798 580.910706,313.758484 
	C580.906982,311.428314 580.899414,309.081390 580.636780,306.771362 
	C579.446716,296.299072 575.138855,292.039490 565.591125,291.736969 
	C555.816895,291.427277 549.817993,296.071167 548.769226,306.227264 
	C547.883484,314.805389 548.257324,323.519287 548.184753,332.174072 
	C548.109375,341.171814 548.244812,350.171539 548.142700,359.168762 
	C548.059814,366.461578 543.635315,370.558441 536.007019,370.680145 
	C528.555725,370.799103 523.557617,366.616364 523.517273,359.418701 
	C523.368713,332.924408 523.438354,306.428741 523.485718,279.933655 
	C523.494202,275.202789 525.510315,271.223846 530.031494,269.648651 
	C535.377014,267.786285 540.858643,267.676208 545.653687,272.352905 
z"/>
<path fill="#414753" opacity="1.000000" stroke="none" 
	d="
M319.488159,297.522705 
	C300.741486,281.429199 304.000702,250.880600 326.218719,239.592697 
	C348.177673,228.436401 370.448639,229.054276 391.854767,242.089355 
	C396.245148,244.762848 399.480225,248.454086 398.638794,253.878677 
	C397.722870,259.783539 394.102753,264.231140 388.107208,265.097473 
	C385.048279,265.539490 381.258118,264.327637 378.479889,262.700134 
	C367.954468,256.534271 356.833130,255.177521 345.300171,258.226837 
	C341.846741,259.139923 338.242310,261.519958 335.923584,264.258087 
	C331.231750,269.798553 333.298889,277.732330 340.279999,280.861755 
	C348.753387,284.660156 357.740875,287.311279 366.215363,291.107483 
	C374.509491,294.822845 383.256042,298.283752 390.375946,303.724945 
	C412.776215,320.843689 406.782623,356.195465 379.425354,366.185242 
	C355.344574,374.978638 331.919342,372.664154 311.085815,356.183441 
	C304.501434,350.974731 303.682007,344.988617 308.486908,338.930054 
	C313.632019,332.442505 320.502747,331.299164 326.786224,336.353790 
	C338.407471,345.702148 351.525391,348.480316 365.679443,344.705475 
	C369.597260,343.660614 373.651520,340.364166 376.035095,336.971100 
	C379.701111,331.752472 377.745514,324.886414 371.623993,321.659027 
	C363.732086,317.498260 355.173676,314.623077 347.039703,310.894501 
	C337.865326,306.688965 328.843597,302.150452 319.488159,297.522705 
z"/>
<path fill="#414753" opacity="1.000000" stroke="none" 
	d="
M690.946655,282.095551 
	C687.266846,271.180847 683.616943,260.671997 680.102295,250.118118 
	C677.260559,241.585205 680.326843,234.859711 687.956726,232.502960 
	C695.903870,230.048248 701.869263,233.521149 704.577026,242.142731 
	C712.890625,268.612579 721.210510,295.080505 729.549805,321.542267 
	C730.030945,323.068726 730.706604,324.533844 732.470215,326.137634 
	C733.052185,324.392273 733.659668,322.654938 734.212219,320.900299 
	C742.547668,294.432312 750.852600,267.954651 759.219116,241.496490 
	C761.932739,232.914932 767.882324,230.001358 776.230957,232.987045 
	C783.833130,235.705795 786.376404,241.063202 783.720581,249.246613 
	C778.795349,264.422729 773.761719,279.563629 768.774963,294.719757 
	C762.179565,314.765289 755.603271,334.817108 748.969482,354.849915 
	C748.136230,357.365997 747.171814,359.867859 745.977600,362.229340 
	C743.017944,368.082123 738.052551,370.260010 731.615356,370.179962 
	C725.249329,370.100769 720.426270,367.530365 718.184814,361.700531 
	C714.194275,351.321075 710.692688,340.750702 707.106934,330.219238 
	C701.695435,314.325256 696.387146,298.396118 690.946655,282.095551 
z"/>
<path fill="#414753" opacity="1.000000" stroke="none" 
	d="
M815.596436,328.234924 
	C811.968079,335.261475 816.512878,344.050446 824.454956,345.969574 
	C833.691040,348.201477 842.263062,346.345459 850.219360,341.286072 
	C856.721619,337.151367 863.007751,338.099854 867.418701,343.856293 
	C871.475708,349.150848 870.877686,355.337280 865.498169,359.165680 
	C848.248535,371.441681 829.459778,372.876434 809.931885,365.985413 
	C799.939758,362.459412 794.042236,354.456757 791.326355,344.562866 
	C786.793030,328.047974 786.770569,311.288696 790.811584,294.649414 
	C794.529602,279.339539 804.509460,270.553680 820.118530,268.886353 
	C826.835083,268.168915 833.785095,268.168640 840.480042,269.017822 
	C855.200806,270.884857 864.935425,279.458923 868.468872,293.789795 
	C870.314575,301.275757 870.693665,309.249573 870.762512,317.011658 
	C870.830383,324.659485 866.737671,328.030731 859.027405,328.063080 
	C844.695740,328.123230 830.363708,328.108887 815.596436,328.234924 
M814.739258,301.571594 
	C814.470032,303.944855 814.200806,306.318146 813.877136,309.171722 
	C819.882874,309.171722 825.156189,309.171722 830.429565,309.171722 
	C835.677979,309.171722 840.926392,309.171722 846.046753,309.171722 
	C847.703003,300.512970 843.398682,293.323273 835.586853,290.896454 
	C826.861755,288.185974 818.916748,292.004700 814.739258,301.571594 
z"/>
<path fill="#414753" opacity="1.000000" stroke="none" 
	d="
M499.862000,355.512115 
	C491.559875,364.627838 481.012909,368.658051 469.530731,369.412201 
	C461.668915,369.928558 453.479279,369.349121 445.786438,367.662201 
	C433.153778,364.892120 425.343872,356.127777 422.127808,343.783264 
	C417.859497,327.399628 417.865540,310.815430 421.906097,294.372131 
	C425.613068,279.286530 435.490570,270.647095 450.883698,268.904816 
	C457.108704,268.200226 463.571045,267.931580 469.747528,268.771881 
	C487.873322,271.238037 497.906250,281.271393 500.799713,299.358063 
	C501.688293,304.912567 501.919189,310.631866 501.841553,316.267303 
	C501.727844,324.516754 497.891663,328.043030 489.721069,328.065643 
	C476.395508,328.102539 463.067780,328.206512 449.745361,327.999481 
	C445.520935,327.933838 444.538391,329.531372 445.175171,333.372498 
	C446.526154,341.521973 449.817535,345.114349 457.928314,346.425903 
	C466.528473,347.816559 474.380188,345.803406 481.637360,341.011292 
	C486.582642,337.745789 491.310669,337.889282 495.562775,341.082977 
	C500.234253,344.591644 501.738953,349.350433 499.862000,355.512115 
M448.749939,309.170532 
	C458.320770,309.170532 467.891602,309.170532 477.353424,309.170532 
	C478.480042,298.947723 472.992340,291.661377 463.800079,290.251160 
	C455.088867,288.914764 446.806824,294.524994 445.369904,303.145020 
	C445.027893,305.196838 443.109131,308.784241 448.749939,309.170532 
z"/>
<path fill="#414752" opacity="1.000000" stroke="none" 
	d="
M948.160156,271.905640 
	C949.257935,275.843536 950.798645,279.484680 950.805847,283.128906 
	C950.819153,289.802612 947.468811,292.698853 940.804688,292.915131 
	C938.307739,292.996155 935.806030,292.928009 933.306519,292.932709 
	C922.727051,292.952698 918.144897,297.321716 917.996216,308.110962 
	C917.814819,321.272614 917.939819,334.438507 917.931946,347.602570 
	C917.929810,351.101868 918.064880,354.607971 917.893616,358.099030 
	C917.559448,364.910156 912.219055,369.977173 905.554382,370.002472 
	C898.925781,370.027588 893.213623,364.972351 893.139771,358.215057 
	C892.852112,331.890778 892.770691,305.563904 892.713501,279.237732 
	C892.703003,274.429413 895.226501,271.020874 899.738037,269.318970 
	C904.850220,267.390442 911.819580,268.985260 914.995361,272.707977 
	C915.846436,273.705536 916.513428,274.860199 917.577881,276.393555 
	C926.813965,269.039154 936.517700,264.247375 948.160156,271.905640 
z"/>
<path fill="#FCFCFC" opacity="1.000000" stroke="none" 
	d="
M814.860840,301.185822 
	C818.916748,292.004700 826.861755,288.185974 835.586853,290.896454 
	C843.398682,293.323273 847.703003,300.512970 846.046753,309.171722 
	C840.926392,309.171722 835.677979,309.171722 830.429565,309.171722 
	C825.156189,309.171722 819.882874,309.171722 813.877136,309.171722 
	C814.200806,306.318146 814.470032,303.944855 814.860840,301.185822 
z"/>
<path fill="#FBFCFC" opacity="1.000000" stroke="none" 
	d="
M448.281219,309.168335 
	C443.109131,308.784241 445.027893,305.196838 445.369904,303.145020 
	C446.806824,294.524994 455.088867,288.914764 463.800079,290.251160 
	C472.992340,291.661377 478.480042,298.947723 477.353424,309.170532 
	C467.891602,309.170532 458.320770,309.170532 448.281219,309.168335 
z"/>
</svg>