<svg version="1.1" id="Layer_1" xmlns="http://www.w3.org/2000/svg" xmlns:xlink="http://www.w3.org/1999/xlink" x="0px" y="0px"
	 width="100%" viewBox="0 0 1000 600" enable-background="new 0 0 1000 600" xml:space="preserve">
<path fill="#3F4551" opacity="1.000000" stroke="none" 
	d="
M665.000000,601.000000 
	C444.833344,601.000000 225.166672,600.988892 5.500044,601.093506 
	C1.750785,601.095276 0.904367,600.249268 0.906386,596.499939 
	C1.012432,399.500000 1.012432,202.500000 0.906386,5.500051 
	C0.904367,1.750745 1.750897,0.905753 5.500028,0.906894 
	C335.833344,1.007430 666.166687,1.007430 996.500000,0.906894 
	C1000.249084,0.905753 1001.095703,1.750745 1001.093628,5.500051 
	C1000.987610,202.500000 1000.987549,399.500000 1001.093628,596.499939 
	C1001.095642,600.249268 1000.249573,601.098511 996.499878,601.094543 
	C886.166687,600.977905 775.833313,601.000000 665.000000,601.000000 
z"/>
<path fill="#FDFDFD" opacity="1.000000" stroke="none" 
	d="
M232.499695,385.496277 
	C180.237305,430.269867 96.082710,414.719177 63.113285,350.551117 
	C34.570053,294.997711 56.064339,220.965668 126.136696,197.333633 
	C163.850677,184.614532 199.346512,189.896103 231.093445,214.979553 
	C237.075562,219.706070 237.816528,222.690475 234.955872,229.731262 
	C217.199554,273.434021 199.447433,317.138458 181.648209,360.823730 
	C176.389297,373.730896 169.709534,377.750275 158.509903,375.281342 
	C152.902496,374.045166 149.515671,370.370605 147.275726,365.527557 
	C141.061523,352.091705 136.502945,337.997101 131.165405,324.212372 
	C123.367271,304.072968 115.864281,283.819397 108.209114,263.624481 
	C104.761902,254.530487 108.337723,246.911392 117.778175,243.380112 
	C126.869492,239.979431 134.197235,243.445419 137.337860,252.978210 
	C144.723190,275.395020 151.943726,297.866089 159.262772,320.304810 
	C159.953354,322.422028 160.047256,325.436279 163.174911,325.283417 
	C165.883575,325.150970 165.920334,322.357666 166.657440,320.391205 
	C178.202789,289.590393 189.746429,258.788940 201.312683,227.995956 
	C204.445923,219.654221 204.479630,219.666885 196.457474,216.394333 
	C135.546707,191.546570 68.247704,237.200363 69.172424,302.740997 
	C69.824120,348.930115 106.594780,388.397491 152.473297,392.150970 
	C202.425491,396.237762 244.319809,363.936462 252.644531,314.641174 
	C255.549011,297.442169 252.571396,280.847015 246.102127,264.771484 
	C243.753082,258.934326 245.498886,254.623032 250.936066,252.031509 
	C255.978790,249.628006 259.853516,250.991852 262.357697,256.184082 
	C280.554321,293.913330 274.714813,329.467682 252.417145,363.409027 
	C247.001740,371.652313 240.322174,378.881683 232.499695,385.496277 
z"/>
<path fill="#FCFCFD" opacity="1.000000" stroke="none" 
	d="
M580.919983,348.987305 
	C580.920471,336.830139 580.939941,325.170319 580.906250,313.510681 
	C580.899048,311.016693 580.881470,308.499146 580.555786,306.033783 
	C579.233337,296.022858 574.853149,291.953766 565.365662,291.721069 
	C556.019714,291.491821 550.476807,296.047974 548.771179,305.436523 
	C547.509827,312.379700 548.301819,319.393555 548.210266,326.372589 
	C548.070435,337.031097 548.214355,347.692963 548.160034,358.353027 
	C548.118835,366.445251 543.884705,370.616821 535.823364,370.678284 
	C528.058838,370.737457 523.522949,366.281952 523.504333,358.229767 
	C523.445312,332.578491 523.457703,306.926941 523.500610,281.275574 
	C523.511230,274.926300 525.966858,270.948120 530.590149,269.266907 
	C536.343628,267.174713 543.016541,268.888611 546.644897,273.848450 
	C548.343872,276.170898 549.680725,276.391479 551.931396,274.830627 
	C565.353455,265.522461 578.808899,266.882996 592.075012,275.107361 
	C595.847412,277.446075 598.860107,276.224426 602.265076,274.442780 
	C614.456421,268.063751 627.259033,266.364197 640.332825,271.080688 
	C654.112244,276.051727 662.965210,289.325989 662.937561,303.875488 
	C662.903687,321.697388 662.874634,339.519287 662.841309,357.341187 
	C662.825134,365.984772 658.838318,370.142090 650.538452,370.177887 
	C642.138062,370.214111 638.043884,366.180939 638.012024,357.600342 
	C637.955139,342.276337 638.002075,326.951935 637.985107,311.627716 
	C637.982910,309.631409 638.007202,307.617371 637.767578,305.642029 
	C636.595764,295.980713 631.554199,291.651428 621.691956,291.717865 
	C612.934570,291.776886 606.725952,297.042664 606.070496,305.905212 
	C605.494507,313.694122 605.759399,321.547913 605.722778,329.373383 
	C605.679871,338.534393 605.753540,347.696014 605.700439,356.856934 
	C605.652710,365.105042 600.600647,370.731476 593.278748,370.830750 
	C586.074219,370.928436 580.950500,365.188751 580.921387,356.980011 
	C580.912537,354.481598 580.919983,351.983154 580.919983,348.987305 
z"/>
<path fill="#FDFDFD" opacity="1.000000" stroke="none" 
	d="
M344.681519,370.279663 
	C331.268402,368.859558 319.931488,363.700745 310.017883,355.352783 
	C304.825409,350.980377 304.100922,345.340302 307.801941,339.834839 
	C311.775482,333.923920 318.588898,331.711487 324.176178,334.649353 
	C325.777557,335.491425 327.188171,336.705902 328.656494,337.789917 
	C339.667847,345.918945 351.903748,347.903290 365.098846,345.061798 
	C367.564392,344.530884 369.805054,343.478302 371.861572,342.013458 
	C379.568115,336.524353 379.640472,327.003937 371.846191,321.636322 
	C364.359314,316.480377 355.542023,314.270905 347.208160,311.012085 
	C340.559082,308.412079 333.818970,306.065063 327.449738,302.771301 
	C314.051331,295.842499 306.958038,285.109711 307.530670,269.835541 
	C308.116272,254.215271 316.126434,243.130066 330.263794,237.541611 
	C351.283905,229.232437 372.198364,229.603607 391.881592,242.133011 
	C399.220673,246.804733 400.725006,253.003189 396.452667,259.438141 
	C392.137482,265.937714 385.449799,267.175812 378.372559,262.787201 
	C368.181091,256.467468 357.204681,255.450897 345.713898,257.979736 
	C343.081482,258.559052 340.707397,259.740540 338.554047,261.344421 
	C331.435272,266.646759 331.825378,276.885986 339.845276,280.646881 
	C348.391449,284.654572 357.422424,287.635162 366.266998,290.997742 
	C373.107941,293.598572 379.856720,296.356598 386.059448,300.323334 
	C399.075958,308.647644 405.107147,320.391113 403.399017,335.837097 
	C401.632263,351.813019 392.292786,361.738831 377.628357,367.013611 
	C367.116394,370.794739 356.187683,371.436737 344.681519,370.279663 
z"/>
<path fill="#FDFDFD" opacity="1.000000" stroke="none" 
	d="
M730.466187,324.353058 
	C733.753113,327.968445 733.426636,323.814117 733.695190,322.982910 
	C737.577026,310.968597 741.249146,298.886719 745.007751,286.832336 
	C749.706543,271.762695 754.396667,256.690125 759.171387,241.644455 
	C762.411255,231.435318 772.611084,228.559204 780.903870,235.492828 
	C784.984253,238.904419 785.662476,243.224762 784.026489,248.148697 
	C778.734558,264.076324 773.483215,280.017426 768.248840,295.964081 
	C761.823059,315.540283 755.447632,335.133026 749.001465,354.702515 
	C748.172363,357.219513 747.203796,359.715820 746.032776,362.089996 
	C743.132141,367.971069 738.214661,370.226562 731.763367,370.180969 
	C725.411926,370.136017 720.811890,367.545715 718.189026,361.848541 
	C714.219299,353.225677 711.838013,344.021790 708.800720,335.059937 
	C699.147400,306.576752 689.516846,278.085602 679.994690,249.558411 
	C676.572815,239.306732 683.235046,231.030060 693.958191,231.985168 
	C699.402283,232.470062 702.520508,235.605957 704.135681,240.791260 
	C712.783081,268.552582 721.549683,296.276733 730.466187,324.353058 
z"/>
<path fill="#FDFDFD" opacity="1.000000" stroke="none" 
	d="
M830.006714,328.077698 
	C825.509888,328.078613 821.508362,328.179657 817.514587,328.047150 
	C814.588074,327.950043 813.827209,329.236969 813.975281,331.990967 
	C814.402283,339.931824 818.326721,344.753479 826.029541,346.267487 
	C834.810364,347.993317 842.836426,345.989868 850.295166,341.233704 
	C856.171204,337.486786 861.573669,337.916412 866.168518,342.425354 
	C871.647583,347.801910 871.234131,355.043701 865.032776,359.547852 
	C853.149109,368.179169 839.710510,371.053375 825.313721,369.547028 
	C802.284851,367.137482 791.326416,355.851105 788.912415,332.772156 
	C787.550537,319.751831 787.575500,306.827515 790.932129,294.097168 
	C794.896423,279.061829 804.841431,270.810974 820.160706,268.742462 
	C826.475159,267.889832 832.751709,267.701904 839.066040,268.676453 
	C856.541565,271.373688 866.692139,281.185120 869.820435,298.636047 
	C870.850647,304.383179 871.251770,310.199036 870.963501,316.046997 
	C870.542114,324.595154 867.000671,328.040375 858.492554,328.069458 
	C849.163513,328.101379 839.834412,328.077362 830.006714,328.077698 
z"/>
<path fill="#FDFDFD" opacity="1.000000" stroke="none" 
	d="
M434.514893,362.525482 
	C427.866760,357.703094 424.034424,351.277130 422.150452,343.896210 
	C417.920197,327.322998 417.825745,310.586700 422.009369,293.996216 
	C425.755096,279.142303 435.653442,270.950226 450.768188,268.789276 
	C457.756378,267.790131 464.686523,267.732422 471.647949,268.894073 
	C486.262634,271.332794 495.625153,279.686981 499.611450,293.909149 
	C501.692657,301.334381 502.320312,308.980286 501.876282,316.674500 
	C501.418182,324.612732 497.754028,328.039734 489.804230,328.065308 
	C476.645355,328.107666 463.486237,328.064484 450.327271,328.084137 
	C444.909180,328.092255 444.337616,328.839020 445.382294,334.264679 
	C446.856323,341.920074 450.071289,345.151794 457.836975,346.427673 
	C466.249939,347.809906 474.004578,345.940704 481.148315,341.342590 
	C487.979431,336.945679 494.655029,338.201294 498.923676,344.648682 
	C502.236206,349.651947 501.454834,355.177582 496.908905,358.896088 
	C480.973816,371.930725 452.194000,373.715668 434.514893,362.525482 
z"/>
<path fill="#FDFDFE" opacity="1.000000" stroke="none" 
	d="
M917.933960,326.000122 
	C917.933533,336.488831 917.972046,346.477844 917.920349,356.466339 
	C917.879333,364.388214 912.852234,369.894745 905.699646,369.998779 
	C898.328735,370.105988 893.122498,364.522522 893.075806,356.373108 
	C892.933899,331.570068 892.805603,306.766968 892.699463,281.963745 
	C892.668457,274.723938 894.918518,270.866455 899.987061,269.219330 
	C905.925293,267.289520 912.210815,268.983795 915.906006,274.216248 
	C918.166687,277.417358 919.493774,275.198486 920.972839,273.968353 
	C927.456482,268.575745 934.730347,266.840088 942.892273,268.963013 
	C949.111633,270.580719 951.927795,275.956146 950.872375,284.079132 
	C950.071655,290.241943 947.096130,292.767883 940.360352,292.921417 
	C937.698059,292.982117 935.033203,292.919739 932.369568,292.935333 
	C923.189331,292.989014 918.559448,297.214813 918.077515,306.526367 
	C917.750977,312.836578 917.962891,319.174591 917.933960,326.000122 
z"/>
<path fill="#424854" opacity="1.000000" stroke="none" 
	d="
M844.004272,297.161102 
	C844.726257,298.510712 845.399475,299.484802 845.776184,300.562531 
	C848.287964,307.748596 847.258362,309.173279 839.665466,309.172577 
	C832.534607,309.171875 825.390320,308.908691 818.277954,309.271301 
	C814.023804,309.488159 813.569092,307.481384 814.106934,304.243225 
	C815.205322,297.630280 818.692932,292.923218 825.263367,290.988831 
	C832.690491,288.802155 838.983582,290.599182 844.004272,297.161102 
z"/>
<path fill="#424854" opacity="1.000000" stroke="none" 
	d="
M447.844299,297.000610 
	C453.023163,290.545959 459.411957,288.768646 466.820129,291.036346 
	C473.177460,292.982391 476.479889,297.701141 477.682312,304.111267 
	C478.417358,308.029510 477.165741,309.442810 473.001678,309.265259 
	C465.350281,308.939026 457.674957,309.185547 450.009674,309.166718 
	C444.949219,309.154266 444.176056,308.302582 445.287720,303.309448 
	C445.748444,301.240082 446.839844,299.311096 447.844299,297.000610 
z"/>
</svg>