<svg version="1.1" id="Layer_1" xmlns="http://www.w3.org/2000/svg" xmlns:xlink="http://www.w3.org/1999/xlink" x="0px" y="0px"
	 width="100%" viewBox="0 0 500 500" enable-background="new 0 0 500 500" xml:space="preserve">
<path fill="#FFFFFF" opacity="1.000000" stroke="none" 
	d="
M284.000000,501.000000 
	C190.666687,501.000000 97.833344,500.975800 5.000190,501.095703 
	C1.576148,501.100128 0.903036,500.423828 0.905301,497.000000 
	C1.013778,333.000092 1.013756,169.000122 0.905337,5.000248 
	C0.903074,1.576950 1.575790,0.903021 4.999875,0.905286 
	C168.999756,1.013775 332.999725,1.013761 496.999634,0.905353 
	C500.422668,0.903091 501.096985,1.575426 501.094727,4.999755 
	C500.986206,168.999634 500.986237,332.999603 501.094604,496.999512 
	C501.096893,500.422272 500.425690,501.102661 497.000244,501.096466 
	C426.167023,500.968353 355.333466,501.000000 284.000000,501.000000 
z"/>
<path fill="#404652" opacity="1.000000" stroke="none" 
	d="
M164.839600,369.191467 
	C222.643341,409.265747 294.807770,405.660187 346.784210,359.908417 
	C390.331177,321.576660 408.486633,258.012054 385.499847,198.555878 
	C384.600739,196.230316 383.879730,193.827286 382.852631,191.561493 
	C380.300720,185.931900 381.755341,181.117065 385.882141,177.014252 
	C390.227783,172.693848 395.355957,170.198242 401.682526,171.938660 
	C405.510193,172.991638 407.525970,175.880814 409.204742,179.345352 
	C435.319244,233.238647 430.516479,285.937164 401.836151,336.974548 
	C379.913300,375.986847 347.950745,404.629028 304.775177,417.685425 
	C241.865326,436.709503 184.270477,424.566193 134.837372,381.019226 
	C92.965355,344.132996 73.087624,296.408783 76.484573,240.851776 
	C80.872177,169.092743 117.615875,118.397377 183.610474,90.198395 
	C228.939301,70.829735 275.164307,70.625992 320.951294,89.971329 
	C336.396545,96.497047 350.240295,105.664276 362.941833,116.569702 
	C368.625580,121.449730 369.947235,127.837730 366.823761,135.602692 
	C354.424103,166.428253 341.976471,197.234512 329.563385,228.054703 
	C313.674042,267.506104 297.828339,306.975128 281.878754,346.402161 
	C280.265106,350.390991 278.365479,354.330200 276.086395,357.971893 
	C267.816986,371.185425 247.786865,374.383026 235.747208,364.509552 
	C231.123901,360.718140 228.150085,355.630402 226.056168,350.179443 
	C216.588959,325.534241 207.268951,300.832153 197.971375,276.122162 
	C187.499481,248.291260 177.826050,220.131866 166.426712,192.687973 
	C158.983002,174.767273 170.828369,161.617249 184.954132,158.228577 
	C197.884064,155.126770 207.851379,160.916565 212.026688,173.905945 
	C223.822739,210.603546 235.508667,247.336563 247.286530,284.040039 
	C248.145782,286.717743 249.096069,289.846252 252.555557,289.938354 
	C255.819794,290.025269 256.897858,287.067444 257.681030,284.567139 
	C263.842712,264.895691 271.752747,245.865875 278.879364,226.550522 
	C290.839783,194.134064 302.985107,161.785843 315.039124,129.403870 
	C317.486694,122.828751 316.976532,121.674187 310.515472,118.669739 
	C242.619034,87.097244 158.587906,114.941231 122.970284,180.813446 
	C87.562195,246.298141 104.643600,323.615570 164.839600,369.191467 
z"/>
</svg>