<svg version="1.1" id="Layer_1" xmlns="http://www.w3.org/2000/svg" xmlns:xlink="http://www.w3.org/1999/xlink" x="0px" y="0px"
	 width="100%" viewBox="0 0 500 500" enable-background="new 0 0 500 500" xml:space="preserve">
<path fill="#3F4551" opacity="1.000000" stroke="none" 
	d="
M284.000000,501.000000 
	C190.666687,501.000000 97.833344,500.975800 5.000190,501.095703 
	C1.576148,501.100128 0.903036,500.423828 0.905301,497.000000 
	C1.013778,333.000092 1.013756,169.000122 0.905337,5.000248 
	C0.903074,1.576950 1.575790,0.903021 4.999875,0.905286 
	C168.999756,1.013775 332.999725,1.013761 496.999634,0.905353 
	C500.422668,0.903091 501.096985,1.575426 501.094727,4.999755 
	C500.986206,168.999634 500.986237,332.999603 501.094604,496.999512 
	C501.096893,500.422272 500.425690,501.102661 497.000244,501.096466 
	C426.167023,500.968353 355.333466,501.000000 284.000000,501.000000 
z"/>
<path fill="#FEFEFE" opacity="1.000000" stroke="none" 
	d="
M164.838608,369.189575 
	C222.524460,409.285980 294.605377,405.536377 346.851532,359.935730 
	C390.331146,321.986572 406.391663,260.366730 387.416229,204.163605 
	C385.821899,199.441406 383.910889,194.826447 382.301117,190.109070 
	C379.962646,183.256302 384.339783,175.805389 392.500122,172.526978 
	C399.688782,169.638977 405.669861,171.950516 409.040039,178.970322 
	C436.849518,236.894653 429.896759,292.508423 396.579773,345.585846 
	C374.640289,380.537781 343.804932,405.240082 304.232910,418.093201 
	C224.247818,444.072662 133.197235,405.899017 95.691200,330.796417 
	C69.778397,278.908295 68.949799,226.267853 93.294739,173.899841 
	C111.540604,134.651474 142.248886,107.426727 181.941010,90.770432 
	C227.927902,71.472610 274.361084,70.372917 320.733154,89.896973 
	C336.354218,96.473930 350.327301,105.733391 363.150879,116.751518 
	C368.602936,121.435974 369.905029,127.955093 366.904022,135.410019 
	C351.454254,173.789536 335.956116,212.149567 320.494812,250.524429 
	C307.578979,282.581512 294.697998,314.652710 281.774414,346.706696 
	C280.844238,349.013672 279.752380,351.261597 278.632141,353.484802 
	C271.577881,367.484283 261.113129,372.408844 245.677826,369.242462 
	C238.457474,367.761353 233.495682,363.474548 229.818649,357.370331 
	C223.502579,346.885010 220.206100,335.136902 215.929138,323.814240 
	C199.138901,279.364441 182.526276,234.847595 165.788406,190.377960 
	C160.770828,177.047058 167.025482,164.508209 181.505600,159.251678 
	C195.370102,154.218597 207.442886,159.659653 211.856445,173.342072 
	C223.743378,210.192596 235.435532,247.105942 247.255707,283.978088 
	C248.112030,286.649353 249.032486,289.782959 252.483643,289.939453 
	C255.782104,290.089050 256.868225,287.131287 257.654724,284.640594 
	C264.362671,263.396698 272.897919,242.822769 280.573059,221.935577 
	C291.862244,191.212982 303.437531,160.595566 314.884460,129.930923 
	C317.544342,122.805550 317.029388,121.585823 310.135742,118.452965 
	C224.403229,79.491272 122.574333,132.821442 107.230675,225.710068 
	C97.535515,284.403412 117.596855,332.365143 164.838608,369.189575 
z"/>
</svg>